# xmcd
#
# Track frame offsets:
#	150
#	18166
#	35511
#	60354
#	82978
#
# Disc length: 1372 seconds
#
# Revision: 1
# Processed by: cddbd v1.5.2PL0 Copyright (c) Steve Scherf et al.
# Submitted via: audiograbber 1.83.01
#
DISCID=2c055a05
DTITLE=Milla Alftan - I Hold Back My Tears [CDM)
DYEAR=2000
DGENRE=Dance
TTITLE0=I Hold Back My Tears (Radio Version)
TTITLE1=I Hold Back My Tears (2Step Remix)
TTITLE2=I Hold Back My Tears (K's House Remix)
TTITLE3=I Hold Back My Tears (Jay F Kay Remix)
TTITLE4=I Hold Back My Tears (Album Version)
EXTD=TR.
EXTT0=
EXTT1=
EXTT2=
EXTT3=
EXTT4=
PLAYORDER=
